<svg width="50" height="50" viewBox="0 0 50 50" fill="none" xmlns="http://www.w3.org/2000/svg">
<path d="M39.7999 12.4062C40.0131 12.1886 40.2677 12.0158 40.5486 11.8978C40.8295 11.7797 41.1311 11.719 41.4358 11.719C41.7405 11.719 42.0421 11.7797 42.323 11.8978C42.6039 12.0158 42.8585 12.1886 43.0718 12.4062C43.9655 13.3094 43.978 14.7687 43.103 15.6875L24.6249 37.5313C24.4151 37.7616 24.1605 37.9468 23.8767 38.0754C23.5929 38.204 23.2858 38.2733 22.9743 38.2792C22.6627 38.285 22.3533 38.2273 22.0648 38.1094C21.7764 37.9916 21.515 37.8161 21.2968 37.5938L10.053 26.2C9.61937 25.7578 9.37646 25.1631 9.37646 24.5438C9.37646 23.9244 9.61937 23.3297 10.053 22.8875C10.2663 22.6699 10.5208 22.497 10.8017 22.379C11.0826 22.261 11.3842 22.2002 11.6889 22.2002C11.9936 22.2002 12.2953 22.261 12.5762 22.379C12.8571 22.497 13.1116 22.6699 13.3249 22.8875L22.8624 32.5531L39.7374 12.475C39.7568 12.4508 39.7777 12.4279 39.7999 12.4062Z" fill="#32DC4E"/>
</svg>
